<svg xmlns="http://www.w3.org/2000/svg" version="1.1" xmlns:xlink="http://www.w3.org/1999/xlink" xmlns:svgjs="http://svgjs.dev/svgjs" width="450" height="220" preserveAspectRatio="none" viewBox="0 0 450 220"><g mask="url(&quot;#SvgjsMask1364&quot;)" fill="none"><rect width="450" height="220" x="0" y="0" fill="#0e2a47"></rect><path d="M0,103.35C21.834,102.593,43.492,106.976,64.114,99.763C88.575,91.207,115.519,81.151,128.154,58.526C140.974,35.568,137.293,6.612,130.285,-18.732C123.783,-42.245,105.973,-59.552,90.328,-78.269C74.384,-97.344,60.149,-118.038,37.939,-129.209C12.981,-141.762,-15.717,-152.684,-42.615,-145.135C-69.583,-137.566,-92.021,-115.171,-103.352,-89.555C-113.698,-66.165,-98.071,-39.906,-100.425,-14.439C-102.603,9.127,-122.957,30.444,-116.551,53.227C-109.999,76.527,-89.271,94.748,-67.036,104.31C-46.082,113.321,-22.795,104.14,0,103.35" fill="#0b2239"></path><path d="M450 380.957C482.647 383.70799999999997 515.599 381.99199999999996 545.502 368.60400000000004 578.56 353.803 611.558 333.565 627.967 301.275 644.613 268.51800000000003 645.783 228.441 634.499 193.473 623.97 160.844 588.045 145.474 568.583 117.247 545.665 84.007 548.52 27.50200000000001 510.569 13.723000000000013 473.24 0.1699999999999875 438.52 41.00999999999999 402.079 56.79499999999999 370.746 70.368 336.702 76.95599999999999 311.474 99.966 284.24 124.805 254.826 154.973 254.033 191.824 253.246 228.388 286.869 254.879 307.491 285.082 324.529 310.03499999999997 339.241 336.469 364.31100000000004 353.33500000000004 389.726 370.433 419.477 378.385 450 380.957" fill="#113255"></path></g><defs><mask id="SvgjsMask1364"><rect width="450" height="220" fill="#ffffff"></rect></mask></defs></svg>